<?xml version="1.0" encoding="UTF-8" standalone="no"?><!DOCTYPE svg PUBLIC "-//W3C//DTD SVG 1.1//EN" "http://www.w3.org/Graphics/SVG/1.1/DTD/svg11.dtd"><svg width="100%" height="100%" viewBox="0 0 231 231" version="1.1" xmlns="http://www.w3.org/2000/svg" xmlns:xlink="http://www.w3.org/1999/xlink" xml:space="preserve" xmlns:serif="http://www.serif.com/" style="fill-rule:evenodd;clip-rule:evenodd;stroke-linejoin:round;stroke-miterlimit:2;"><g id="Layer_4"><path d="M126.42,62.15c0,-5.282 -4.288,-9.57 -9.57,-9.57l-4.73,-0c-5.282,-0 -9.57,4.288 -9.57,9.57l0,113.67c0,5.282 4.288,9.57 9.57,9.57l4.73,0c5.282,0 9.57,-4.288 9.57,-9.57l0,-113.67Z" style="fill:#fff;"/><path d="M114.48,69.73c-38.53,-0 -69.77,9.19 -69.77,20.54c0.011,1.135 0.307,2.249 0.86,3.24c1.84,3.39 7,5.26 11.95,4.49l11.59,-1.78c30.07,-4.625 60.67,-4.625 90.74,-0l11.59,1.79c5,0.77 10.11,-1.1 11.95,-4.49c0.556,-0.99 0.856,-2.104 0.87,-3.24c-0,-11.36 -31.25,-20.55 -69.78,-20.55Z" style="fill:#fff;fill-rule:nonzero;"/><path d="M114.48,107.35c-37,-0 -66.93,8.83 -66.93,19.72c0.015,1.091 0.304,2.16 0.84,3.11c1.76,3.26 6.68,5.05 11.45,4.31l11.17,-1.71c28.83,-4.438 58.17,-4.438 87,-0l11.13,1.71c4.77,0.74 9.69,-1 11.45,-4.31c0.536,-0.95 0.825,-2.019 0.84,-3.11c-0.02,-10.89 -29.99,-19.72 -66.95,-19.72Z" style="fill:#fff;fill-rule:nonzero;"/><path d="M75.64,78.145c-0,-6.162 -5.003,-11.165 -11.165,-11.165c-6.162,0 -11.165,5.003 -11.165,11.165c-0,6.162 5.003,11.165 11.165,11.165c6.162,-0 11.165,-5.003 11.165,-11.165Z" style="fill:#fff;"/><path d="M175.64,78.145c-0,-6.162 -5.003,-11.165 -11.165,-11.165c-6.162,0 -11.165,5.003 -11.165,11.165c-0,6.162 5.003,11.165 11.165,11.165c6.162,-0 11.165,-5.003 11.165,-11.165Z" style="fill:#fff;"/><path d="M115.31,230.62c-63.257,0 -115.31,-52.053 -115.31,-115.31c-0,-63.257 52.053,-115.31 115.31,-115.31c63.257,-0 115.31,52.053 115.31,115.31c-0.071,63.23 -52.08,115.239 -115.31,115.31Zm-0,-214.61c-54.48,0 -99.31,44.83 -99.31,99.31c0,54.48 44.83,99.31 99.31,99.31c54.48,0 99.31,-44.83 99.31,-99.31c0,-0.003 0,-0.007 0,-0.01c-0.066,-54.453 -44.857,-99.24 -99.31,-99.3Z" style="fill:#fff;fill-rule:nonzero;"/><path d="M75.64,118.015c-0,-6.162 -5.003,-11.165 -11.165,-11.165c-6.162,0 -11.165,5.003 -11.165,11.165c-0,6.162 5.003,11.165 11.165,11.165c6.162,0 11.165,-5.003 11.165,-11.165Z" style="fill:#fff;"/><path d="M175.64,118.015c-0,-6.162 -5.003,-11.165 -11.165,-11.165c-6.162,0 -11.165,5.003 -11.165,11.165c-0,6.162 5.003,11.165 11.165,11.165c6.162,0 11.165,-5.003 11.165,-11.165Z" style="fill:#fff;"/></g></svg>