<?xml version="1.0" encoding="UTF-8" standalone="no"?>
<!DOCTYPE svg PUBLIC "-//W3C//DTD SVG 1.1//EN" "http://www.w3.org/Graphics/SVG/1.1/DTD/svg11.dtd">
<svg width="100%" height="100%" viewBox="0 0 231 231" version="1.1" xmlns="http://www.w3.org/2000/svg" xmlns:xlink="http://www.w3.org/1999/xlink" xml:space="preserve" xmlns:serif="http://www.serif.com/" style="fill-rule:evenodd;clip-rule:evenodd;stroke-linejoin:round;stroke-miterlimit:2;">
    <g transform="matrix(1,0,0,1,0.01,0.01)">
        <g id="Layer_4">
            <g transform="matrix(0.921704,0,0,0.921704,9.02789,9.02711)">
                <circle cx="115.305" cy="115.295" r="115.305" style="fill:rgb(67,108,229);"/>
            </g>
            <path d="M126.41,62.14C126.41,56.858 122.122,52.57 116.84,52.57L112.11,52.57C106.828,52.57 102.54,56.858 102.54,62.14L102.54,175.81C102.54,181.092 106.828,185.38 112.11,185.38L116.84,185.38C122.122,185.38 126.41,181.092 126.41,175.81L126.41,62.14Z" style="fill:white;"/>
            <path d="M114.47,69.72C75.94,69.72 44.7,78.91 44.7,90.26C44.711,91.395 45.007,92.509 45.56,93.5C47.4,96.89 52.56,98.76 57.51,97.99L69.1,96.21C99.17,91.585 129.77,91.585 159.84,96.21L171.43,98C176.43,98.77 181.54,96.9 183.38,93.51C183.936,92.52 184.236,91.406 184.25,90.27C184.25,78.91 153,69.72 114.47,69.72Z" style="fill:white;fill-rule:nonzero;"/>
            <path d="M114.47,107.34C77.47,107.34 47.54,116.17 47.54,127.06C47.555,128.151 47.844,129.22 48.38,130.17C50.14,133.43 55.06,135.22 59.83,134.48L71,132.77C99.83,128.332 129.17,128.332 158,132.77L169.13,134.48C173.9,135.22 178.82,133.48 180.58,130.17C181.116,129.22 181.405,128.151 181.42,127.06C181.4,116.17 151.43,107.34 114.47,107.34Z" style="fill:white;fill-rule:nonzero;"/>
            <path d="M75.63,78.135C75.63,71.973 70.627,66.97 64.465,66.97C58.303,66.97 53.3,71.973 53.3,78.135C53.3,84.297 58.303,89.3 64.465,89.3C70.627,89.3 75.63,84.297 75.63,78.135Z" style="fill:white;"/>
            <path d="M175.63,78.135C175.63,71.973 170.627,66.97 164.465,66.97C158.303,66.97 153.3,71.973 153.3,78.135C153.3,84.297 158.303,89.3 164.465,89.3C170.627,89.3 175.63,84.297 175.63,78.135Z" style="fill:white;"/>
            <path d="M115.3,230.61C52.043,230.61 -0.01,178.557 -0.01,115.3C-0.01,52.043 52.043,-0.01 115.3,-0.01C178.557,-0.01 230.61,52.043 230.61,115.3C230.539,178.53 178.53,230.539 115.3,230.61ZM115.3,16C60.82,16 15.99,60.83 15.99,115.31C15.99,169.79 60.82,214.62 115.3,214.62C169.78,214.62 214.61,169.79 214.61,115.31C214.61,115.307 214.61,115.303 214.61,115.3C214.544,60.847 169.753,16.06 115.3,16Z" style="fill:white;fill-rule:nonzero;"/>
            <path d="M75.63,118.005C75.63,111.843 70.627,106.84 64.465,106.84C58.303,106.84 53.3,111.843 53.3,118.005C53.3,124.167 58.303,129.17 64.465,129.17C70.627,129.17 75.63,124.167 75.63,118.005Z" style="fill:white;"/>
            <path d="M175.63,118.005C175.63,111.843 170.627,106.84 164.465,106.84C158.303,106.84 153.3,111.843 153.3,118.005C153.3,124.167 158.303,129.17 164.465,129.17C170.627,129.17 175.63,124.167 175.63,118.005Z" style="fill:white;"/>
        </g>
    </g>
</svg>
